<mxfile host="app.diagrams.net" agent="Mozilla/5.0 (Macintosh; Intel Mac OS X 10_15_7) AppleWebKit/605.1.15 (KHTML, like Gecko) Version/17.1.2 Safari/605.1.15" version="24.8.4">
  <diagram name="Page-1" id="0easuJHs2qrHBscQRiWS">
    <mxGraphModel dx="956" dy="551" grid="1" gridSize="10" guides="1" tooltips="1" connect="1" arrows="1" fold="1" page="1" pageScale="1" pageWidth="827" pageHeight="1169" math="0" shadow="0">
      <root>
        <mxCell id="0" />
        <mxCell id="1" parent="0" />
        <mxCell id="UF0n6Xu2Qbzrm_0WNL3c-2" value="" style="ellipse;shape=cloud;whiteSpace=wrap;html=1;" vertex="1" parent="1">
          <mxGeometry x="539.42" y="354" width="180" height="196" as="geometry" />
        </mxCell>
        <mxCell id="UF0n6Xu2Qbzrm_0WNL3c-3" value="" style="verticalLabelPosition=bottom;html=1;verticalAlign=top;align=center;strokeColor=#b85450;fillColor=#f8cecc;shape=mxgraph.azure.user;" vertex="1" parent="1">
          <mxGeometry x="172" y="309.86" width="47.5" height="50" as="geometry" />
        </mxCell>
        <mxCell id="UF0n6Xu2Qbzrm_0WNL3c-4" value="" style="verticalLabelPosition=bottom;html=1;verticalAlign=top;align=center;strokeColor=#b85450;fillColor=#A20025;shape=mxgraph.azure.user;" vertex="1" parent="1">
          <mxGeometry x="172" y="400" width="47.5" height="50" as="geometry" />
        </mxCell>
        <mxCell id="UF0n6Xu2Qbzrm_0WNL3c-5" value="" style="verticalLabelPosition=bottom;html=1;verticalAlign=top;align=center;strokeColor=#b85450;fillColor=#f8cecc;shape=mxgraph.azure.user;" vertex="1" parent="1">
          <mxGeometry x="169.5" y="482" width="47.5" height="50" as="geometry" />
        </mxCell>
        <mxCell id="UF0n6Xu2Qbzrm_0WNL3c-6" value="" style="sketch=0;outlineConnect=0;dashed=0;verticalLabelPosition=bottom;verticalAlign=top;align=center;html=1;fontSize=12;fontStyle=0;aspect=fixed;pointerEvents=1;shape=mxgraph.aws4.documents;fillColor=#647687;strokeColor=#314354;fontColor=#ffffff;" vertex="1" parent="1">
          <mxGeometry x="605" y="388" width="64" height="78" as="geometry" />
        </mxCell>
        <mxCell id="UF0n6Xu2Qbzrm_0WNL3c-7" value="&lt;b&gt;&lt;font color=&quot;#a20025&quot;&gt;Access policy&amp;nbsp;&lt;/font&gt;&lt;/b&gt;&lt;div&gt;&lt;b&gt;&lt;font color=&quot;#a20025&quot;&gt;= (X and Y and Z)&amp;nbsp;&lt;/font&gt;&lt;/b&gt;&lt;/div&gt;&lt;div&gt;&lt;b&gt;&lt;font color=&quot;#a20025&quot;&gt;or (A and B and C) &amp;nbsp;&lt;/font&gt;&lt;/b&gt;&lt;/div&gt;" style="text;html=1;align=center;verticalAlign=middle;resizable=0;points=[];autosize=1;strokeColor=none;fillColor=none;" vertex="1" parent="1">
          <mxGeometry x="567" y="456" width="140" height="60" as="geometry" />
        </mxCell>
        <mxCell id="UF0n6Xu2Qbzrm_0WNL3c-9" value="atts B = {&lt;b&gt;&lt;font color=&quot;#a20025&quot;&gt;x1, x2, ...xm, &lt;/font&gt;&lt;font color=&quot;#1a1a1a&quot;&gt;b1, b2, ... bn&lt;/font&gt;&lt;/b&gt;}" style="text;html=1;align=center;verticalAlign=middle;resizable=0;points=[];autosize=1;strokeColor=none;fillColor=none;" vertex="1" parent="1">
          <mxGeometry x="95" y="450" width="220" height="30" as="geometry" />
        </mxCell>
        <mxCell id="UF0n6Xu2Qbzrm_0WNL3c-11" value="" style="sketch=0;pointerEvents=1;shadow=0;dashed=0;html=1;strokeColor=#6F0000;labelPosition=center;verticalLabelPosition=bottom;verticalAlign=top;outlineConnect=0;align=center;shape=mxgraph.office.security.lock_protected;fillColor=#a20025;fontColor=#ffffff;" vertex="1" parent="1">
          <mxGeometry x="579.08" y="404" width="21.92" height="30" as="geometry" />
        </mxCell>
        <mxCell id="UF0n6Xu2Qbzrm_0WNL3c-12" value="" style="sketch=0;pointerEvents=1;shadow=0;dashed=0;html=1;strokeColor=#6F0000;labelPosition=center;verticalLabelPosition=bottom;verticalAlign=top;outlineConnect=0;align=center;shape=mxgraph.office.security.key_permissions;fillColor=#A20025;rotation=-90;fontColor=#ffffff;" vertex="1" parent="1">
          <mxGeometry x="547" y="310.00000000000006" width="20" height="36.85" as="geometry" />
        </mxCell>
        <mxCell id="UF0n6Xu2Qbzrm_0WNL3c-13" value="" style="endArrow=classic;html=1;rounded=0;exitX=0.167;exitY=1.133;exitDx=0;exitDy=0;exitPerimeter=0;strokeWidth=3;strokeColor=#A20025;" edge="1" parent="1">
          <mxGeometry width="50" height="50" relative="1" as="geometry">
            <mxPoint x="473.35000000000014" y="276.1899999999999" as="sourcePoint" />
            <mxPoint x="580" y="400" as="targetPoint" />
          </mxGeometry>
        </mxCell>
        <mxCell id="UF0n6Xu2Qbzrm_0WNL3c-14" value="" style="endArrow=classic;html=1;rounded=0;entryX=0.044;entryY=0.961;entryDx=0;entryDy=0;exitX=0;exitY=0;exitDx=70;exitDy=12.5;exitPerimeter=0;entryPerimeter=0;strokeWidth=3;fillColor=#a20025;strokeColor=#A20025;" edge="1" parent="1" target="UF0n6Xu2Qbzrm_0WNL3c-19">
          <mxGeometry width="50" height="50" relative="1" as="geometry">
            <mxPoint x="320" y="422.5" as="sourcePoint" />
            <mxPoint x="449.56886227544896" y="299.5" as="targetPoint" />
          </mxGeometry>
        </mxCell>
        <mxCell id="UF0n6Xu2Qbzrm_0WNL3c-15" value="&lt;font color=&quot;#a20025&quot;&gt;X and Y and Z&lt;/font&gt;" style="text;html=1;align=center;verticalAlign=middle;resizable=0;points=[];autosize=1;strokeColor=none;fillColor=none;rotation=-55;fontStyle=1" vertex="1" parent="1">
          <mxGeometry x="318.5" y="320.73" width="100" height="30" as="geometry" />
        </mxCell>
        <mxCell id="UF0n6Xu2Qbzrm_0WNL3c-18" value="" style="sketch=0;pointerEvents=1;shadow=0;dashed=0;html=1;strokeColor=#6F0000;fillColor=#a20025;labelPosition=center;verticalLabelPosition=bottom;verticalAlign=top;outlineConnect=0;align=center;shape=mxgraph.office.security.lock_unprotected;fontColor=#ffffff;" vertex="1" parent="1">
          <mxGeometry x="420" y="427" width="20" height="28.57" as="geometry" />
        </mxCell>
        <mxCell id="UF0n6Xu2Qbzrm_0WNL3c-19" value="" style="image;aspect=fixed;perimeter=ellipsePerimeter;html=1;align=center;shadow=0;dashed=0;fontColor=#4277BB;labelBackgroundColor=default;fontSize=12;spacingTop=3;image=img/lib/ibm/blockchain/certificate_authority.svg;" vertex="1" parent="1">
          <mxGeometry x="418" y="220" width="60" height="60" as="geometry" />
        </mxCell>
        <mxCell id="UF0n6Xu2Qbzrm_0WNL3c-20" value="Key Issue Authority" style="text;html=1;align=center;verticalAlign=middle;resizable=0;points=[];autosize=1;strokeColor=none;fillColor=none;" vertex="1" parent="1">
          <mxGeometry x="385" y="190" width="130" height="30" as="geometry" />
        </mxCell>
        <mxCell id="UF0n6Xu2Qbzrm_0WNL3c-21" value="&lt;font color=&quot;#a20025&quot;&gt;X and Y and Z&lt;/font&gt;" style="text;html=1;align=center;verticalAlign=middle;resizable=0;points=[];autosize=1;strokeColor=none;fillColor=none;rotation=50;fontStyle=1" vertex="1" parent="1">
          <mxGeometry x="484" y="319.86" width="100" height="30" as="geometry" />
        </mxCell>
        <mxCell id="UF0n6Xu2Qbzrm_0WNL3c-22" value="" style="sketch=0;outlineConnect=0;dashed=0;verticalLabelPosition=bottom;verticalAlign=top;align=center;html=1;fontSize=12;fontStyle=0;aspect=fixed;pointerEvents=1;shape=mxgraph.aws4.documents;fillColor=#647687;strokeColor=#314354;fontColor=#ffffff;" vertex="1" parent="1">
          <mxGeometry x="335" y="404" width="64" height="78" as="geometry" />
        </mxCell>
        <mxCell id="UF0n6Xu2Qbzrm_0WNL3c-28" value="atts C = {&lt;font color=&quot;#a20025&quot;&gt;&lt;span&gt;x1, x2, ...xm&lt;/span&gt;&lt;/font&gt;, c1, c2, ...cl}" style="text;html=1;align=center;verticalAlign=middle;resizable=0;points=[];autosize=1;strokeColor=none;fillColor=none;fontStyle=1" vertex="1" parent="1">
          <mxGeometry x="95" y="532" width="210" height="30" as="geometry" />
        </mxCell>
        <mxCell id="UF0n6Xu2Qbzrm_0WNL3c-30" value="atts A = {&lt;font color=&quot;#a20025&quot;&gt;&lt;span&gt;x1, x2, ...xm&lt;/span&gt;&lt;/font&gt;, a1, a2, ....ak}" style="text;html=1;align=center;verticalAlign=middle;resizable=0;points=[];autosize=1;strokeColor=none;fillColor=none;fontStyle=1" vertex="1" parent="1">
          <mxGeometry x="100" y="359.86" width="210" height="30" as="geometry" />
        </mxCell>
      </root>
    </mxGraphModel>
  </diagram>
</mxfile>
